<?xml version="1.0" encoding="utf-8"?>
<!-- Generator: Adobe Illustrator 26.0.3, SVG Export Plug-In . SVG Version: 6.00 Build 0)  -->
<svg version="1.0" id="katman_1" xmlns="http://www.w3.org/2000/svg" xmlns:xlink="http://www.w3.org/1999/xlink" x="0px" y="0px"
	 viewBox="0 0 800 600" style="enable-background:new 0 0 800 600;" xml:space="preserve">
<style type="text/css">
	.st0{fill:#37BE72;}
</style>
<g>
	<g>
		<g>
			<g id="Laag_1">
				<g>
					<g>
						<path class="st0" d="M593.8,392.6l-1.2,1.2c-7,7.6-15.8,12.9-25.8,17h-0.6c-8.8,3.5-18.2,5.3-28.2,5.3
							c-14.1,0-27.6-2.9-40.5-8.8h-0.6l-1.8-1.2l-0.6-0.6c-11.7-6.5-21.1-15.8-27.6-27.6l-1.2-2.3L440,403.2c0,0-5.3,26.4-7.6,39.3
							v0.6l0.6,0.6l0,0l0.6,0.6c26.4,28.8,63.4,45.2,102.1,45.2h2.3h1.8c25.2,0,50.5-6.5,72.8-18.8l0.6-0.6
							c12.3-7,23.5-15.8,33.4-25.8l1.2-1.2L593.8,392.6z"/>
						<path class="st0" d="M229.4,264.1L229.4,264.1l10.6,39.9l2.3-3.5c11.1-16.4,28.8-27.6,48.1-31.7h0.6c7-1.2,14.1-1.8,21.1-1.8
							c10.6,0.6,21.1,3.5,29.9,8.8l0.6,0.6c12.9,7,24.1,17,33.4,28.2l1.8,1.8l24.6-34.6l0,0l7.6-37l-0.6-0.6l-2.9-2.3
							c-16.4-14.7-35.2-26.4-56.3-32.9c-11.1-3.5-22.9-5.3-34.6-5.3H315c-26.4,0-52.2,7-75.7,19.4l-0.6,0.6L228.2,260L229.4,264.1z"
							/>
						<path class="st0" d="M461.1,364.4v-0.6c0-2.9-0.6-14.1-0.6-21.1V341c-0.6-17.6,5.3-34.6,16.4-48.1l0.6-0.6
							c1.8-1.8,3.5-4.1,5.3-5.9c14.1-14.7,33.4-22.9,54-22.9c3.5,0,6.5,0,10,0.6h0.6c17,2.3,32.3,10,44.6,21.7l1.2,1.2l52.2-52.8
							l-1.2-1.2c-26.4-25.8-61-41.1-98-43.4h-0.6c-3.5,0-6.5-0.6-10-0.6c-22.3,0-44,4.1-64.5,12.3c-13.5,5.9-25.8,13.5-36.4,23.5
							l-0.6,0.6h-0.6v0.6l-0.6,0.6l0,0l0,0l-0.6,0.6c-3.5,3.5-7,7.6-10.6,11.7v0.6l-8.2,37L386,315.1v27c0,29.9-17.6,56.9-44,69.2
							h-0.6c-10,4.7-20.5,6.5-31.1,6.5c-42.2,0.6-76.9-33.4-78.6-75.7l-0.6-25.2v-1.8l-13.5-54l11.7-49.9l-1.2-78.6l-76.3-25.8
							l2.9,173.1v0.6l0.6,62.2c0,2.3,0,4.1,0,6.5c0,0.6,0,0.6,0,1.2c2.9,42.2,23.5,81.6,56.9,108l0.6,0.6
							c27.6,21.7,61.6,33.4,96.8,33.4h5.3h1.2c38.7-1.2,70.4-14.1,95.1-37l0.6-0.6c3.5-3.5,7-7,10-10.6v-0.6l8.2-43.4l29.9-34
							L461.1,364.4z"/>
					</g>
				</g>
			</g>
		</g>
	</g>
</g>
</svg>
